<?xml version="1.0" standalone="no"?>
<!DOCTYPE svg PUBLIC "-//W3C//DTD SVG 20010904//EN"
 "http://www.w3.org/TR/2001/REC-SVG-20010904/DTD/svg10.dtd">
<svg version="1.0" xmlns="http://www.w3.org/2000/svg"
 width="120.000000pt" height="120.000000pt" viewBox="0 0 120.000000 120.000000"
 preserveAspectRatio="xMidYMid meet">

<g transform="translate(0.000000,120.000000) scale(0.100000,-0.100000)"
fill="#000000" stroke="none">
<path d="M586 975 c-4 -10 1 -15 14 -15 13 0 18 5 14 15 -4 8 -10 15 -14 15
-4 0 -10 -7 -14 -15z"/>
<path d="M580 930 c0 -13 7 -20 20 -20 13 0 20 7 20 20 0 13 -7 20 -20 20 -13
0 -20 -7 -20 -20z"/>
<path d="M510 922 c0 -8 9 -16 20 -19 11 -3 20 -10 20 -15 0 -18 29 -38 54
-38 17 0 26 6 26 16 0 8 5 12 10 9 6 -3 10 -3 11 2 0 4 2 18 5 31 5 30 -14 28
-26 -4 -6 -15 -15 -22 -21 -18 -6 3 -15 0 -20 -7 -6 -10 -10 -5 -15 19 -7 35
-13 39 -32 20 -10 -10 -15 -10 -22 2 -7 11 -10 12 -10 2z"/>
<path d="M680 919 c0 -5 5 -7 10 -4 6 3 10 8 10 11 0 2 -4 4 -10 4 -5 0 -10
-5 -10 -11z"/>
<path d="M721 861 c-8 -5 -9 -11 -3 -15 5 -3 12 1 16 9 6 17 6 18 -13 6z"/>
<path d="M525 830 c-3 -5 -13 -6 -22 -3 -11 4 -14 3 -9 -5 9 -16 56 -11 56 5
0 15 -16 17 -25 3z"/>
<path d="M641 831 c-7 -5 -22 -6 -32 -4 -10 3 -19 1 -19 -4 0 -6 26 -9 58 -8
69 3 73 4 47 15 -26 11 -37 11 -54 1z"/>
<path d="M340 789 c0 -5 5 -7 10 -4 6 3 10 8 10 11 0 2 -4 4 -10 4 -5 0 -10
-5 -10 -11z"/>
<path d="M490 783 c0 -10 28 -13 105 -13 77 0 105 3 105 13 0 9 -28 12 -105
12 -77 0 -105 -3 -105 -12z"/>
<path d="M528 725 c2 -14 6 -25 8 -25 2 0 4 11 4 25 0 14 -4 25 -9 25 -4 0 -6
-11 -3 -25z"/>
<path d="M552 725 c0 -16 2 -22 5 -12 2 9 2 23 0 30 -3 6 -5 -1 -5 -18z"/>
<path d="M572 725 c0 -16 2 -22 5 -12 2 9 2 23 0 30 -3 6 -5 -1 -5 -18z"/>
<path d="M592 725 c0 -16 2 -22 5 -12 2 9 2 23 0 30 -3 6 -5 -1 -5 -18z"/>
<path d="M610 725 c0 -18 5 -25 20 -25 15 0 20 7 20 25 0 18 -5 25 -20 25 -15
0 -20 -7 -20 -25z m30 0 c0 -8 -4 -15 -10 -15 -5 0 -10 7 -10 15 0 8 5 15 10
15 6 0 10 -7 10 -15z"/>
<path d="M662 725 c0 -16 2 -22 5 -12 2 9 2 23 0 30 -3 6 -5 -1 -5 -18z"/>
<path d="M821 741 c-8 -5 -9 -11 -3 -15 5 -3 12 1 16 9 6 17 6 18 -13 6z"/>
<path d="M402 665 c0 -16 2 -22 5 -12 2 9 2 23 0 30 -3 6 -5 -1 -5 -18z"/>
<path d="M465 657 c1 -12 -2 -25 -8 -28 -5 -4 13 -6 39 -6 27 1 52 6 57 12 4
6 10 5 16 -4 7 -10 9 -8 8 10 -2 31 -37 35 -38 4 0 -17 -2 -17 -10 5 -10 23
-11 24 -23 8 -16 -22 -30 -24 -23 -4 3 8 0 17 -7 19 -8 3 -12 -3 -11 -16z"/>
<path d="M618 648 c4 -17 2 -20 -11 -15 -10 4 -17 2 -17 -3 0 -6 9 -10 20 -10
15 0 20 7 20 25 0 14 -4 25 -9 25 -5 0 -7 -10 -3 -22z"/>
<path d="M640 644 c0 -21 3 -25 9 -15 5 7 14 10 20 7 7 -5 11 1 10 16 0 13 -3
17 -6 10 -4 -10 -8 -10 -19 -1 -11 9 -14 6 -14 -17z"/>
<path d="M702 648 c2 -13 9 -23 17 -23 23 0 23 19 0 33 -19 12 -20 11 -17 -10z"/>
<path d="M360 623 c0 -21 3 -24 9 -14 5 8 7 20 4 28 -8 21 -13 15 -13 -14z"/>
<path d="M514 490 c0 -63 1 -89 3 -57 2 31 2 83 0 115 -2 31 -3 5 -3 -58z"/>
<path d="M564 490 c0 -63 1 -89 3 -57 2 31 2 83 0 115 -2 31 -3 5 -3 -58z"/>
<path d="M584 490 c0 -63 1 -89 3 -57 2 31 2 83 0 115 -2 31 -3 5 -3 -58z"/>
<path d="M604 490 c0 -63 1 -89 3 -57 2 31 2 83 0 115 -2 31 -3 5 -3 -58z"/>
<path d="M654 490 c0 -63 1 -89 3 -57 2 31 2 83 0 115 -2 31 -3 5 -3 -58z"/>
<path d="M674 490 c0 -63 1 -89 3 -57 2 31 2 83 0 115 -2 31 -3 5 -3 -58z"/>
<path d="M830 590 c-9 -6 -10 -10 -3 -10 6 0 14 -12 16 -27 3 -20 4 -17 4 10
-1 20 -1 37 -2 37 0 0 -7 -5 -15 -10z"/>
<path d="M530 485 c0 -63 4 -105 10 -105 6 0 10 42 10 105 0 63 -4 105 -10
105 -6 0 -10 -42 -10 -105z"/>
<path d="M628 485 c-2 -58 0 -105 5 -105 4 0 7 47 7 105 0 58 -2 105 -4 105
-3 0 -6 -47 -8 -105z"/>
<path d="M817 533 c-10 -9 -8 -46 3 -63 7 -11 9 -3 7 27 -1 24 -2 43 -3 43 0
0 -4 -3 -7 -7z"/>
<path d="M897 511 c-4 -17 -3 -21 5 -13 5 5 8 16 6 23 -3 8 -7 3 -11 -10z"/>
<path d="M251 494 c0 -11 3 -14 6 -6 3 7 2 16 -1 19 -3 4 -6 -2 -5 -13z"/>
<path d="M436 497 c3 -10 9 -15 12 -12 3 3 0 11 -7 18 -10 9 -11 8 -5 -6z"/>
<path d="M386 475 c-3 -8 -1 -15 4 -15 6 0 10 7 10 15 0 8 -2 15 -4 15 -2 0
-6 -7 -10 -15z"/>
<path d="M731 434 c-12 -15 -21 -31 -21 -37 0 -12 -1 -13 29 31 27 38 21 43
-8 6z"/>
<path d="M780 451 c0 -5 5 -13 10 -16 6 -3 10 -2 10 4 0 5 -4 13 -10 16 -5 3
-10 2 -10 -4z"/>
<path d="M325 430 c3 -5 8 -10 11 -10 2 0 4 5 4 10 0 6 -5 10 -11 10 -5 0 -7
-4 -4 -10z"/>
<path d="M450 416 c0 -2 7 -9 15 -16 13 -11 14 -10 9 4 -5 14 -24 23 -24 12z"/>
<path d="M370 351 c0 -6 4 -13 10 -16 6 -3 7 1 4 9 -7 18 -14 21 -14 7z"/>
<path d="M450 305 c0 -13 23 -15 145 -15 122 0 145 2 145 15 0 13 -23 15 -145
15 -122 0 -145 -2 -145 -15z"/>
<path d="M455 259 c-29 -18 -29 -19 -6 -19 20 0 21 -2 11 -15 -10 -12 -9 -15
5 -15 32 0 85 32 85 51 0 26 -54 25 -95 -2z"/>
<path d="M560 265 c0 -10 11 -15 35 -15 24 0 35 5 35 15 0 10 -11 15 -35 15
-24 0 -35 -5 -35 -15z"/>
<path d="M647 273 c-15 -14 -5 -30 28 -46 46 -22 72 -23 55 -2 -10 13 -9 15
11 15 l24 0 -25 20 c-24 19 -80 27 -93 13z"/>
<path d="M350 161 c0 -12 9 -20 26 -24 19 -3 24 -1 20 10 -3 8 -6 20 -7 26 0
7 -4 3 -9 -8 -7 -17 -9 -17 -9 -2 -1 23 -21 22 -21 -2z"/>
<path d="M410 160 c0 -11 4 -20 8 -20 4 0 8 9 9 20 1 11 -2 20 -8 20 -5 0 -9
-9 -9 -20z"/>
<path d="M451 155 c0 -11 3 -14 6 -7 4 10 8 10 19 1 11 -9 14 -8 14 8 0 12 -7
19 -20 19 -14 0 -20 -7 -19 -21z"/>
<path d="M507 160 c3 -11 7 -20 8 -20 1 0 5 9 8 20 3 12 0 20 -8 20 -8 0 -11
-8 -8 -20z"/>
<path d="M540 160 c0 -18 3 -19 20 -10 22 12 18 30 -6 30 -8 0 -14 -9 -14 -20z"/>
<path d="M587 161 c-3 -14 2 -18 25 -19 18 0 31 5 35 15 6 14 8 14 14 -3 7
-17 8 -17 8 4 1 26 -24 30 -34 5 -6 -17 -7 -17 -19 0 -17 22 -22 22 -29 -2z"/>
<path d="M680 160 c0 -13 7 -20 20 -20 11 0 20 3 20 8 0 4 -9 13 -20 20 -18
11 -20 10 -20 -8z"/>
<path d="M731 155 c0 -11 3 -14 6 -7 4 10 8 10 19 1 11 -9 14 -8 14 8 0 12 -7
19 -20 19 -14 0 -20 -7 -19 -21z"/>
<path d="M780 160 c0 -13 7 -20 20 -20 13 0 20 7 20 20 0 13 -7 20 -20 20 -13
0 -20 -7 -20 -20z m30 0 c0 -5 -4 -10 -10 -10 -5 0 -10 5 -10 10 0 6 5 10 10
10 6 0 10 -4 10 -10z"/>
<path d="M830 160 c0 -11 6 -20 13 -20 7 0 13 9 13 20 0 11 -6 20 -13 20 -7 0
-13 -9 -13 -20z"/>
<path d="M238 103 c-10 -2 -18 -11 -18 -20 0 -9 6 -13 14 -10 7 3 18 1 23 -4
12 -12 38 16 28 31 -6 10 -17 11 -47 3z m37 -12 c3 -5 1 -12 -5 -16 -5 -3 -10
1 -10 9 0 18 6 21 15 7z"/>
<path d="M300 90 c0 -13 5 -18 15 -14 8 4 15 12 15 20 0 8 -7 14 -15 14 -8 0
-15 -9 -15 -20z"/>
<path d="M341 93 c-1 -16 4 -21 19 -20 12 1 20 8 20 20 0 16 -3 17 -14 8 -11
-9 -15 -9 -19 1 -3 7 -6 3 -6 -9z"/>
<path d="M397 88 c-9 -31 1 -36 12 -7 l10 24 0 -24 c1 -18 5 -22 19 -16 9 4
23 8 30 8 6 0 12 8 12 18 0 23 -33 19 -42 -6 -6 -19 -6 -18 -7 3 -1 28 -27 29
-34 0z"/>
<path d="M490 102 c0 -6 9 -16 20 -22 17 -9 20 -8 19 12 0 13 -3 17 -6 10 -4
-10 -8 -10 -19 -1 -10 8 -14 8 -14 1z"/>
<path d="M540 90 c0 -11 4 -20 9 -20 5 0 11 9 14 20 3 13 0 20 -9 20 -8 0 -14
-9 -14 -20z"/>
<path d="M587 103 c-13 -12 -7 -31 11 -38 14 -5 15 -4 5 6 -18 18 -16 27 5 32
14 4 14 5 1 6 -9 0 -19 -2 -22 -6z"/>
<path d="M630 90 c0 -9 6 -17 13 -17 7 0 14 8 14 17 1 9 -5 17 -13 17 -8 0
-14 -8 -14 -17z"/>
<path d="M673 94 c-8 -22 18 -37 36 -20 7 8 10 19 7 25 -10 16 -36 13 -43 -5z
m27 -10 c0 -8 -5 -12 -10 -9 -6 4 -8 11 -5 16 9 14 15 11 15 -7z"/>
<path d="M730 88 c0 -12 3 -18 7 -14 11 10 12 36 2 36 -5 0 -9 -10 -9 -22z"/>
<path d="M790 92 c0 -10 7 -19 15 -19 8 0 15 4 15 9 0 4 -6 8 -12 8 -9 0 -8 4
2 10 13 8 12 10 -2 10 -11 0 -18 -7 -18 -18z"/>
<path d="M848 103 c-10 -2 -18 -11 -18 -20 0 -9 6 -13 14 -10 7 3 18 1 23 -4
12 -12 38 16 28 31 -6 10 -17 11 -47 3z m37 -12 c3 -5 1 -12 -5 -16 -5 -3 -10
1 -10 9 0 18 6 21 15 7z"/>
<path d="M910 90 c0 -13 5 -18 15 -14 8 4 15 12 15 20 0 8 -7 14 -15 14 -8 0
-15 -9 -15 -20z"/>
<path d="M953 94 c-6 -16 15 -37 29 -28 4 3 8 14 8 25 0 23 -28 26 -37 3z m27
-10 c0 -8 -4 -12 -10 -9 -5 3 -10 10 -10 16 0 5 5 9 10 9 6 0 10 -7 10 -16z"/>
</g>
</svg>
